HIERARCHY
ROOT hemi_large
{
	OFFSET 0.000000 0.000000 0.000000
	CHANNELS 6 Xposition Yposition Zposition Yrotation Xrotation Zrotation
	End Site
	{
		OFFSET 0.000000 0.000000 0.000000
	}
}
MOTION
Frames: 98
Frame Time: 0.008333334
-1.588093 1.430179 3.725935 -14.786220 55.146330 -4.428162 
-1.588666 1.431068 3.721936 -15.017610 55.172310 -4.626038 
-1.589012 1.432459 3.717310 -15.446960 55.191080 -4.928650 
-1.590124 1.432962 3.713078 -15.713960 55.399940 -4.959778 
-1.590949 1.432854 3.708696 -15.822630 55.626190 -4.951508 
-1.591417 1.431352 3.704135 -15.807860 55.868290 -4.976898 
-1.592662 1.429160 3.700540 -15.937290 56.019740 -5.133484 
-1.595356 1.424564 3.696770 -15.930110 56.318520 -5.059296 
-1.597363 1.418786 3.692440 -15.670780 56.640460 -4.661499 
-1.602014 1.410727 3.687396 -15.666750 57.202160 -4.349762 
-1.607579 1.401485 3.682087 -15.812870 57.797440 -3.996857 
-1.611633 1.392323 3.677410 -15.903930 58.530320 -3.581543 
-1.613338 1.385981 3.673062 -16.069790 59.185970 -3.549805 
-1.613079 1.383067 3.670140 -16.265500 59.556410 -3.685516 
-1.612841 1.382313 3.666004 -17.043790 60.056900 -4.316437 
-1.612115 1.381598 3.661950 -18.067170 60.502990 -5.388580 
-1.611991 1.380543 3.658650 -19.041380 60.925580 -6.231812 
-1.612586 1.379777 3.655281 -19.770510 61.295920 -6.767029 
-1.613305 1.377561 3.651120 -20.198700 61.707410 -7.166229 
-1.613900 1.377358 3.648355 -20.462370 61.825160 -7.344177 
-1.614259 1.379227 3.645081 -20.800230 61.745350 -7.615662 
-1.614843 1.381771 3.641571 -21.329470 61.610440 -8.033936 
-1.615203 1.384674 3.637557 -21.917270 61.473860 -8.550262 
-1.615727 1.387373 3.633724 -22.717070 61.461970 -9.150146 
-1.614739 1.390339 3.629835 -23.295170 61.503610 -9.844269 
-1.612919 1.394565 3.626486 -23.963260 61.478870 -10.457580 
-1.611343 1.398059 3.624183 -24.619780 61.535780 -11.069950 
-1.609150 1.400330 3.621356 -25.113920 61.570950 -11.593570 
-1.606619 1.403176 3.618472 -25.107120 61.521870 -11.907350 
-1.604314 1.405020 3.616284 -24.998170 61.417310 -12.018920 
-1.600637 1.407216 3.613597 -24.308650 61.269860 -11.765010 
-1.598280 1.408060 3.611313 -23.786070 61.188740 -11.651610 
-1.594067 1.410053 3.608913 -23.405700 60.878730 -11.654510 
-1.589173 1.411674 3.605058 -22.904170 60.869030 -11.743040 
-1.586477 1.413073 3.600939 -23.078190 60.785710 -12.051940 
-1.581715 1.416135 3.594314 -23.578740 60.537030 -12.673000 
-1.576371 1.420026 3.587081 -23.890010 60.249080 -13.303530 
-1.570753 1.425562 3.577271 -24.599060 59.898590 -14.164730 
-1.564135 1.432473 3.565738 -25.236970 59.252080 -15.059390 
-1.557520 1.441387 3.552010 -25.967800 58.446470 -16.058900 
-1.551660 1.450163 3.536793 -26.751920 57.607380 -16.949770 
-1.545707 1.459391 3.520802 -27.320890 56.876830 -17.445710 
-1.540009 1.466189 3.504011 -27.914730 56.228950 -17.948000 
-1.533481 1.472989 3.487251 -28.421330 55.799380 -18.323460 
-1.526392 1.478241 3.470476 -28.774260 55.394970 -18.686580 
-1.518844 1.482490 3.453739 -29.268860 55.234080 -19.096830 
-1.510410 1.486188 3.437813 -29.867220 55.044450 -19.795900 
-1.503554 1.489878 3.421475 -30.550510 54.970080 -20.363770 
-1.496051 1.494027 3.404817 -31.223450 54.604720 -21.085170 
-1.488964 1.497654 3.389205 -31.475830 54.261680 -21.342500 
-1.481755 1.503133 3.373803 -31.451480 53.591110 -21.445430 
-1.475715 1.511332 3.360058 -31.297760 52.588100 -21.316160 
-1.468517 1.521410 3.346515 -31.164400 51.258940 -21.588170 
-1.464651 1.530317 3.336032 -31.298830 50.070820 -22.100830 
-1.462261 1.536379 3.328439 -31.379610 49.014750 -22.722140 
-1.461265 1.540433 3.324164 -31.546300 48.274420 -23.169280 
-1.462077 1.542918 3.321869 -31.877530 47.591770 -23.604400 
-1.464867 1.545946 3.320305 -31.965000 46.889020 -23.801030 
-1.467717 1.551155 3.317509 -32.040370 45.949430 -23.722470 
-1.469029 1.560003 3.313056 -31.713810 44.684840 -23.345060 
-1.467864 1.570640 3.306377 -31.390470 43.082280 -23.080230 
-1.463509 1.584214 3.297219 -31.122710 41.048770 -22.785280 
-1.455751 1.599473 3.284577 -30.855320 38.630880 -22.917910 
-1.444388 1.616212 3.266757 -30.866790 36.101530 -23.201320 
-1.430276 1.634408 3.245631 -30.946320 33.457960 -23.633180 
-1.413124 1.650937 3.223345 -31.250340 30.833480 -24.294040 
-1.397988 1.661809 3.203097 -31.868100 29.168800 -24.783970 
-1.383325 1.670650 3.186425 -32.476350 28.128890 -25.562380 
-1.367787 1.681450 3.171905 -32.978580 27.219140 -26.262080 
-1.353010 1.694358 3.158820 -33.634700 26.158010 -27.054930 
-1.341418 1.708614 3.149203 -33.955350 25.141090 -27.790190 
-1.333800 1.719920 3.143602 -34.387270 24.328030 -28.535580 
-1.329958 1.727958 3.143753 -34.865480 24.103440 -29.213130 
-1.328738 1.731708 3.147453 -35.490720 24.134530 -30.037080 
-1.326514 1.733782 3.150909 -36.185520 24.319400 -31.071110 
-1.322819 1.735292 3.155455 -36.898320 24.495520 -32.312260 
-1.318207 1.735028 3.160140 -37.830630 24.843260 -33.677920 
-1.314264 1.732965 3.164956 -38.739410 25.276160 -35.072690 
-1.310534 1.730886 3.170981 -39.456360 25.712840 -36.283020 
-1.306787 1.728116 3.176212 -40.118800 26.264440 -37.605590 
-1.303103 1.725401 3.182904 -40.595030 26.726930 -38.544250 
-1.301628 1.721660 3.190673 -41.311580 27.379510 -39.709840 
-1.300051 1.716420 3.198675 -42.177860 28.205290 -40.853940 
-1.299949 1.709868 3.206731 -43.277130 29.051160 -42.040500 
-1.300823 1.704491 3.212263 -44.287290 29.811650 -42.846560 
-1.305583 1.701272 3.213967 -45.367830 30.417910 -43.283690 
-1.309308 1.697529 3.213842 -46.098540 30.950370 -43.349240 
-1.314296 1.693744 3.212851 -46.808110 31.526780 -43.260190 
-1.318755 1.689565 3.211080 -47.531980 32.113380 -43.062770 
-1.323221 1.684439 3.209889 -48.058410 32.571000 -43.037260 
-1.325468 1.680591 3.206919 -48.570560 33.026230 -42.898350 
-1.325236 1.677591 3.203942 -49.022250 33.276650 -42.904450 
-1.324422 1.675604 3.200532 -49.486050 33.195840 -42.861940 
-1.323076 1.674448 3.194445 -49.894500 33.260850 -42.925020 
-1.320882 1.674337 3.188855 -50.331570 33.104310 -42.769380 
-1.317496 1.675373 3.181579 -50.426390 32.852410 -42.576020 
-1.312418 1.678476 3.174217 -50.218810 32.566190 -42.212680 
-1.305574 1.682544 3.166800 -49.887940 32.009560 -41.806790 
